<svg xmlns="http://www.w3.org/2000/svg" width="48" height="48" viewBox="0 0 48 48">
    <g fill="none" fill-rule="evenodd">
        <g fill-rule="nonzero">
            <g>
                <g>
                    <g>
                        <g>
                            <g>
                                <path fill="#8B9BA9" d="M.05 1.89v7.53h26.785c.765 0 1.385-.612 1.385-1.368V1.89L14.135.065.05 1.89z" transform="translate(-34 -2316) translate(0 2294) translate(24 22) translate(10) translate(.653 5.143) translate(11.362 22.637)"/>
                                <path fill="#6C7A88" d="M25.449 1.525v5.157H.05v2.739h26.785c.765 0 1.385-.613 1.385-1.37v-6.16l-2.771-.366z" transform="translate(-34 -2316) translate(0 2294) translate(24 22) translate(10) translate(.653 5.143) translate(11.362 22.637)"/>
                            </g>
                            <g>
                                <g>
                                    <path fill="#FF7E40" d="M40.09.072H14.83c-.765 0-1.385.613-1.385 1.37V12.12H4.204c-1.296 0-2.42.888-2.704 2.138L.451 18.866C.182 20.05.046 21.26.046 22.473v9.585h13.399v-7.53H40.09c.766 0 1.386-.614 1.386-1.37V1.441c0-.756-.62-1.369-1.386-1.369z" transform="translate(-34 -2316) translate(0 2294) translate(24 22) translate(10) translate(.653 5.143) translate(.739)"/>
                                    <path fill="#FF6344" d="M45.171 15.909h-3.695v-2.457h1.847c.383 0 .693-.307.693-.685 0-.378-.31-.684-.693-.684h-1.847V9.626h2.771c.383 0 .693-.307.693-.685 0-.378-.31-.684-.693-.684h-2.771V5.8h3.695c.383 0 .693-.307.693-.685 0-.378-.31-.685-.693-.685h-3.695V2.126c0-.46.047-.97-.187-1.37-.24-.408-.686-.684-1.199-.684h-1.385V21.79h-25.26V12.12h-2.772v12.408H8.595c-2.02 0-3.857.782-5.222 2.053H.046v5.477h13.399v-7.53H40.09c.513 0 .96-.276 1.199-.685.234-.399.187-.909.187-1.37v-1.369h2.771c.383 0 .693-.306.693-.684 0-.378-.31-.685-.693-.685h-2.771v-2.457h3.695c.383 0 .693-.306.693-.684 0-.378-.31-.685-.693-.685z" transform="translate(-34 -2316) translate(0 2294) translate(24 22) translate(10) translate(.653 5.143) translate(.739)"/>
                                </g>
                                <path fill="#8B9BA9" d="M.693 32.058h5.07V29.32H.694c-.383 0-.693.306-.693.684v1.37c0 .377.31.684.693.684z" transform="translate(-34 -2316) translate(0 2294) translate(24 22) translate(10) translate(.653 5.143)"/>
                                <g>
                                    <path fill="#9DC6FB" d="M7.995 0.071L1.36 0.071 0.042 5.86 7.995 5.86z" transform="translate(-34 -2316) translate(0 2294) translate(24 22) translate(10) translate(.653 5.143) translate(3.418 14.787)"/>
                                    <path fill="#80B4FB" d="M5.389 3.122L0.666 3.122 0.042 5.86 7.995 5.86 7.995 0.071 5.389 0.071z" transform="translate(-34 -2316) translate(0 2294) translate(24 22) translate(10) translate(.653 5.143) translate(3.418 14.787)"/>
                                </g>
                            </g>
                            <g transform="translate(-34 -2316) translate(0 2294) translate(24 22) translate(10) translate(.653 5.143) translate(27.99 27.201)">
                                <ellipse cx="4.895" cy="4.857" fill="#4D5967" rx="4.85" ry="4.792"/>
                                <path fill="#35404A" d="M5.887.166c-.568 1.038-.41 2.362.478 3.239l-2.94 2.904c-.887-.877-2.227-1.034-3.277-.472.46 2.174 2.413 3.812 4.748 3.812 2.674 0 4.85-2.15 4.85-4.792C9.745 2.55 8.086.619 5.886.166z"/>
                                <ellipse cx="4.895" cy="4.857" fill="#E9E3D5" rx="2.078" ry="2.054"/>
                            </g>
                            <g transform="translate(-34 -2316) translate(0 2294) translate(24 22) translate(10) translate(.653 5.143) translate(4.434 27.201)">
                                <ellipse cx="4.9" cy="4.857" fill="#4D5967" rx="4.85" ry="4.792"/>
                                <path fill="#35404A" d="M5.891.166c-.568 1.038-.409 2.362.479 3.239L3.43 6.309c-.887-.877-2.227-1.034-3.277-.472C.612 8.01 2.566 9.649 4.9 9.649c2.674 0 4.85-2.15 4.85-4.792C9.75 2.55 8.092.619 5.89.166z"/>
                                <ellipse cx="4.9" cy="4.857" fill="#E9E3D5" rx="2.078" ry="2.054"/>
                            </g>
                            <g transform="translate(-34 -2316) translate(0 2294) translate(24 22) translate(10) translate(.653 5.143) translate(18.567 2.738)">
                                <ellipse cx="9.632" cy="9.588" fill="#4D5967" rx="9.63" ry="9.516"/>
                                <path fill="#35404A" d="M16.441 2.86l-.004.004c-1.004.992-1.253 2.501-.635 3.764l-9.144 9.071c-1.288-.613-2.823-.383-3.834.616l-.001.002c1.76 1.74 4.2 2.81 6.893 2.787 5.228-.044 9.501-4.267 9.546-9.433.023-2.66-1.06-5.071-2.82-6.812z"/>
                                <g transform="translate(2.771 2.738)">
                                    <ellipse cx="6.861" cy="6.85" fill="#F4EEE0" rx="6.859" ry="6.777"/>
                                    <path fill="#D3CDBF" d="M11.708 2.06c-.96.949-1.322 2.342-.933 3.628.416 1.377.075 2.932-1.024 4.018-1.099 1.086-2.672 1.423-4.066 1.012-1.301-.384-2.711-.027-3.672.922 1.312 1.296 3.152 2.072 5.17 1.98 3.518-.16 6.367-2.975 6.53-6.452.092-1.994-.693-3.812-2.005-5.108z"/>
                                </g>
                                <g fill="#4D5967" transform="translate(8.221 4.838)">
                                    <path d="M3.997 5.435H1.411c-.383 0-.693-.306-.693-.685V.711c0-.378.31-.684.693-.684.382 0 .692.306.692.684v3.355h1.894c.383 0 .693.306.693.684 0 .379-.31.685-.693.685z"/>
                                    <ellipse cx="1.411" cy="4.75" rx="1.386" ry="1.369"/>
                                </g>
                            </g>
                        </g>
                    </g>
                </g>
            </g>
        </g>
    </g>
</svg>
