<svg xmlns="http://www.w3.org/2000/svg" width="48" height="48" viewBox="0 0 48 48">
    <g fill="none" fill-rule="evenodd">
        <g fill-rule="nonzero">
            <g>
                <g>
                    <g>
                        <g>
                            <g>
                                <path fill="#FFCF5D" d="M20.328.45l2.317 2.604 3.137-1.52c.673-.325 1.479.01 1.724.715l1.145 3.292 3.479-.202c.746-.044 1.364.574 1.32 1.32l-.203 3.479 3.292 1.144c.707.246 1.04 1.052.715 1.725l-1.519 3.137 2.604 2.317c.558.497.558 1.37 0 1.867l-2.604 2.317 1.519 3.137c.326.673-.008 1.479-.715 1.724l-3.292 1.145.203 3.479c.043.746-.574 1.363-1.32 1.32l-3.48-.203-1.144 3.292c-.245.706-1.051 1.04-1.724.715l-3.137-1.519-2.317 2.604c-.497.558-1.37.558-1.867 0l-2.317-2.604-3.137 1.519c-.673.326-1.48-.008-1.725-.715l-1.144-3.292-3.48.203c-.745.043-1.363-.574-1.32-1.32l.203-3.48-3.292-1.144c-.706-.245-1.04-1.051-.714-1.724l1.519-3.137L.45 20.328c-.558-.497-.558-1.37 0-1.867l2.604-2.317-1.52-3.137c-.325-.673.01-1.48.715-1.725l3.292-1.144-.202-3.48c-.044-.745.574-1.363 1.32-1.32l3.479.203 1.144-3.292c.246-.706 1.052-1.04 1.725-.714l3.137 1.519L18.461.45c.497-.558 1.37-.558 1.867 0z" transform="translate(-156 -2316) translate(0 2294) translate(144 22) translate(12) translate(2.143 4.245) translate(2.463)"/>
                                <g fill="#FFB545" transform="translate(-156 -2316) translate(0 2294) translate(144 22) translate(12) translate(2.143 4.245) translate(2.463) translate(5.277 1.407)">
                                    <path d="M33.061 17.054l-2.603-2.317 1.518-3.137c.326-.673-.008-1.48-.714-1.725L27.97 8.73l.203-3.48c.043-.746-.574-1.363-1.32-1.32l-3.48.203L22.23.842c-.245-.706-1.052-1.04-1.725-.714l-1.127.545L20.88 5c.387 1.115 1.468 1.837 2.646 1.768l1.92-.112-.111 1.921c-.069 1.178.653 2.259 1.768 2.646l1.817.632-.838 1.732c-.515 1.062-.261 2.336.62 3.12l1.438 1.28-1.438 1.28c-.881.784-1.135 2.058-.62 3.12l.838 1.732-1.817.632c-1.115.387-1.837 1.468-1.768 2.646l.112 1.92-1.921-.111c-1.179-.068-2.259.653-2.646 1.768l-.632 1.817-1.732-.838c-1.062-.514-2.336-.26-3.12.62l-1.28 1.438-1.28-1.437c-.784-.882-2.058-1.136-3.12-.621l-1.732.838-.632-1.817c-.387-1.115-1.467-1.836-2.646-1.768l-4.573.266-.073 1.25c-.043.747.574 1.364 1.32 1.32l3.48-.202 1.144 3.292c.245.706 1.052 1.04 1.725.715l3.137-1.52 2.317 2.604c.497.559 1.37.559 1.866 0l2.317-2.603 3.137 1.519c.673.325 1.48-.009 1.725-.715l1.144-3.292 3.48.203c.746.043 1.363-.574 1.32-1.32l-.203-3.48 3.292-1.144c.706-.245 1.04-1.052.714-1.725l-1.518-3.137 2.603-2.317c.559-.496.559-1.37 0-1.866z"/>
                                    <circle cx="14.117" cy="17.987" r="12.554"/>
                                </g>
                            </g>
                            <g fill="#3F5F94">
                                <path d="M3.09 4.662c0 .364-.294.66-.659.66H.672c-.364 0-.66-.296-.66-.66 0-.365.296-.66.66-.66h.22V2.206c-.232.081-.5.03-.686-.156-.258-.258-.258-.675 0-.933l.88-.88c.188-.188.472-.244.718-.142.247.102.407.342.407.61v3.297h.22c.365 0 .66.295.66.66zM7.801 2.023v1.32c0 1.09-.887 1.978-1.978 1.978s-1.979-.887-1.979-1.978v-1.32c0-1.09.888-1.978 1.979-1.978C6.913.045 7.8.932 7.8 2.023zm-1.319 0c0-.363-.296-.66-.66-.66-.363 0-.659.297-.659.66v1.32c0 .363.296.66.66.66.363 0 .66-.297.66-.66v-1.32zM12.514 2.023v1.32c0 1.09-.888 1.978-1.979 1.978-1.091 0-1.979-.887-1.979-1.978v-1.32c0-1.09.888-1.978 1.98-1.978 1.09 0 1.978.887 1.978 1.978zm-1.32 0c0-.363-.295-.66-.659-.66-.363 0-.66.297-.66.66v1.32c0 .363.297.66.66.66.364 0 .66-.297.66-.66v-1.32zM16.704 1.024L14.505 4.98c-.12.217-.345.34-.577.34-.108 0-.218-.027-.32-.084-.318-.177-.433-.578-.256-.897L15.55.383c.177-.318.579-.433.897-.256.319.177.433.578.257.897zm-3.435-.32c0-.365.295-.66.66-.66.364 0 .66.295.66.66 0 .364-.296.659-.66.659-.365 0-.66-.295-.66-.66zm2.199 3.957c0-.365.295-.66.66-.66.364 0 .659.295.659.66 0 .364-.295.66-.66.66-.364 0-.66-.296-.66-.66z" transform="translate(-156 -2316) translate(0 2294) translate(144 22) translate(12) translate(2.143 4.245) translate(13.457 12.138)"/>
                            </g>
                            <g>
                                <path fill="#3F5F94" d="M42.395 7.96H1.319C.591 7.96 0 7.37 0 6.64V1.364C0 .635.59.044 1.32.044h41.075c.729 0 1.32.59 1.32 1.32V6.64c0 .728-.591 1.319-1.32 1.319z" transform="translate(-156 -2316) translate(0 2294) translate(144 22) translate(12) translate(2.143 4.245) translate(0 19.35)"/>
                                <g fill="#FFCF5D">
                                    <path d="M5.308 2.683c0 .704-.274 1.367-.773 1.865-.498.499-1.16.773-1.865.773-1.455 0-2.638-1.184-2.638-2.638C.032 1.228 1.215.044 2.67.044h.484c.364 0 .66.296.66.66 0 .364-.295.66-.66.66H2.67c-.727 0-1.32.591-1.32 1.319 0 .727.593 1.319 1.32 1.319.352 0 .684-.137.933-.387.083-.082.153-.174.21-.273h-.307c-.364 0-.66-.295-.66-.66 0-.364.296-.659.66-.659h1.143c.364 0 .66.295.66.66zM10.32.704v2.388c0 1.229-1.006 2.229-2.243 2.229-1.237 0-2.243-1-2.243-2.23V.705c0-.364.296-.66.66-.66.364 0 .66.296.66.66v2.388c0 .501.414.91.923.91.51 0 .923-.409.923-.91V.704c0-.364.296-.66.66-.66.364 0 .66.296.66.66zM14.499 5.279c-.076.029-.155.042-.232.042-.267 0-.518-.163-.617-.428l-.087-.232h-1.56l-.086.232c-.128.341-.508.514-.85.386-.34-.128-.513-.508-.385-.85L12.166.473c.096-.257.342-.428.617-.428.275 0 .521.17.618.428l1.484 3.958c.128.34-.045.721-.386.849zm-1.431-1.937l-.285-.76-.285.76h.57zM19.397 4.197c.257.259.255.676-.004.933-.128.127-.296.191-.464.191-.17 0-.34-.065-.469-.195l-1.114-1.124h-.352v.66c0 .364-.295.66-.66.66-.364 0-.66-.296-.66-.66V.704c0-.364.296-.66.66-.66h1.287c1.085 0 1.967.888 1.967 1.98 0 .643-.307 1.216-.782 1.577l.591.596zM18.27 2.023c0-.364-.29-.66-.648-.66h-.627v1.32h.627c.357 0 .648-.296.648-.66zM24.195 5.279c-.077.029-.155.042-.232.042-.267 0-.518-.163-.617-.428l-.087-.232h-1.56l-.086.232c-.129.341-.508.514-.85.386-.34-.128-.514-.508-.386-.85L21.861.473c.097-.257.343-.428.618-.428.275 0 .52.17.617.428L24.58 4.43c.128.34-.044.721-.385.849zm-1.431-1.937l-.285-.76-.285.76h.57zM29.592.704V4.66c0 .286-.183.539-.454.627-.068.022-.137.033-.206.033-.206 0-.405-.097-.532-.27L26.69 2.72v1.943c0 .364-.296.66-.66.66-.364 0-.66-.296-.66-.66V.704c0-.285.184-.538.455-.627.27-.089.568.007.737.237l1.71 2.333V.704c0-.364.296-.66.66-.66.365 0 .66.296.66.66zM34.277.704c0 .364-.295.66-.66.66h-.835V4.66c0 .365-.295.66-.66.66-.364 0-.66-.295-.66-.66V1.363h-.835c-.364 0-.66-.295-.66-.66 0-.363.296-.659.66-.659h2.99c.365 0 .66.296.66.66zM38.007 4.661c0 .365-.296.66-.66.66h-2.023c-.364 0-.66-.295-.66-.66V.704c0-.364.296-.66.66-.66h2.023c.364 0 .66.296.66.66 0 .364-.296.66-.66.66h-1.363v.66h.835c.365 0 .66.294.66.659 0 .364-.295.66-.66.66h-.835v.659h1.363c.364 0 .66.295.66.66zM42.1 4.661c0 .365-.296.66-.66.66h-2.023c-.364 0-.66-.295-.66-.66V.704c0-.364.296-.66.66-.66h2.023c.364 0 .66.296.66.66 0 .364-.296.66-.66.66h-1.363v.66h.835c.365 0 .66.294.66.659 0 .364-.295.66-.66.66h-.835v.659h1.363c.364 0 .66.295.66.66z" transform="translate(-156 -2316) translate(0 2294) translate(144 22) translate(12) translate(2.143 4.245) translate(0 19.35) translate(.792 1.32)"/>
                                </g>
                            </g>
                        </g>
                    </g>
                </g>
            </g>
        </g>
    </g>
</svg>
