<svg xmlns="http://www.w3.org/2000/svg" width="48" height="48" viewBox="0 0 48 48">
    <g fill="none" fill-rule="evenodd">
        <g fill-rule="nonzero">
            <g>
                <g>
                    <g>
                        <g transform="translate(-276 -2316) translate(0 2294) translate(264 22) translate(12) translate(5.143 4.694)">
                            <path fill="#FF624B" d="M13.089 9.82l-3.723 2.141c-.59.34-.795 1.083-.459 1.662l8.705 15c.336.58 1.086.774 1.675.436l3.723-2.141 4.372 7.535-5.145 2.959c-3.34 1.92-7.59.817-9.493-2.463L.971 14.661c-1.903-3.28-.74-7.497 2.6-9.417l5.145-2.959 4.373 7.536z"/>
                            <ellipse cx="20.501" cy="35.485" fill="#FF4B34" rx="1.461" ry="1.46"/>
                            <g fill="#FF4B34">
                                <path d="M22.158 26.386c.336.58 1.086.774 1.675.435l.314-.18-1.138-1.96-1.38.793.53.912zM17.29 32.711L5.519 12.423c-1.904-3.28-.74-7.496 2.6-9.416l1.735-.999L8.716.048 3.571 3.007C.23 4.927-.932 9.143.97 12.423l11.773 20.288c1.673 2.884 5.16 4.084 8.247 3.028-1.51-.517-2.844-1.55-3.7-3.028z" transform="translate(0 2.237)"/>
                            </g>
                            <path fill="#FF624B" d="M19.909 28.94l4.21 7.269c.359.618 1.245.777 1.98.354l3.484-2.006c.882-.508 1.248-1.52.818-2.263l-3.95-6.82c-.43-.743-1.494-.933-2.376-.425l-3.484 2.006c-.735.423-1.04 1.267-.682 1.885z"/>
                            <path fill="#FF9079" d="M29.273 33.52c-.041 0-.083-.006-.124-.017-.206-.055-.344-.235-.355-.437l-2.528-4.362c-.132-.23-.054-.523.175-.655.23-.133.523-.055.655.174l2.596 4.481c.075.132.09.29.044.46-.058.214-.252.356-.463.356z"/>
                            <path fill="#FF624B" d="M5.586 4.176l4.21 7.268c.359.619 1.245.777 1.98.354l3.484-2.006c.882-.507 1.248-1.52.819-2.262L12.127.709c-.43-.742-1.493-.932-2.374-.425L6.268 2.29c-.735.423-1.04 1.267-.682 1.886z"/>
                            <path fill="#FF4B34" d="M24.456 28.94c-.359-.618-.053-1.462.682-1.885l1.67-.962-.358-.62c-.43-.742-1.493-.932-2.375-.424l-3.484 2.006c-.735.423-1.04 1.267-.682 1.885l4.21 7.269c.359.618 1.245.776 1.98.354l2.079-1.197-3.722-6.426zM10.133 4.176c-.358-.619-.053-1.463.682-1.886l1.671-.962-.359-.62c-.43-.741-1.493-.931-2.374-.424L6.268 2.29c-.735.423-1.04 1.267-.682 1.886l4.21 7.269c.359.618 1.245.776 1.98.353l2.079-1.196-3.722-6.426z"/>
                            <ellipse cx="12.309" cy="4.333" fill="#FF4B34" rx="1.461" ry="1.46"/>
                            <path fill="#FFA730" d="M32.715 6.463C28.593 2.31 22.535 1.219 17.395 3.2c-.623.24-.91.962-.621 1.565l.012.026c.26.543.895.785 1.457.569 4.302-1.659 9.366-.743 12.823 2.74 4.56 4.593 4.633 11.95.24 16.634l-.583-.588c-.19-.191-.515-.077-.545.19l-.333 3.027c-.022.202.148.374.35.353l3.03-.311c.267-.028.383-.352.194-.543l-.475-.478c5.293-5.58 5.226-14.426-.23-19.921z"/>
                            <path fill="#FFDF74" d="M23.075 14.328c0-1.762-1.194-2.9-3.041-2.9-1.85 0-3.03 1.176-3.077 3.069-.004.176.137.321.314.321h1.293c.169 0 .307-.133.313-.302.018-.493.194-1.32 1.168-1.32.743 0 1.074.367 1.074 1.191 0 1.304-1.554 2.636-3.2 4.045-.279.24-.562.482-.844.729l-.106.093v1.118c0 .174.14.314.313.314h5.715c.173 0 .313-.14.313-.314v-1.117c0-.173-.14-.313-.313-.313h-2.089c-.286 0-.422-.351-.212-.545 1.19-1.098 2.38-2.422 2.38-4.069zM29.895 16.911v-4.887c0-.174-.14-.314-.313-.314h-1.623c-.102 0-.198.05-.257.134l-3.95 5.668c-.037.053-.057.115-.057.18v1.01c0 .174.14.314.313.314h3.63c.173 0 .313.14.313.314v1.16c0 .173.14.313.314.313h1.317c.173 0 .313-.14.313-.313v-1.16c0-.174.14-.314.314-.314h.466c.173 0 .314-.14.314-.314v-1.164c0-.173-.141-.313-.314-.313h-.466c-.173 0-.314-.14-.314-.314zm-2.199.314h-.974c-.25 0-.4-.28-.26-.488l.974-1.457c.172-.258.574-.136.574.174v1.457c0 .173-.14.314-.314.314z"/>
                            <g fill="#FFC34C">
                                <path d="M.33 3.391H1.61c-.177 0-.318-.145-.314-.321C1.337 1.403 2.257.293 3.74.05c-.206-.033-.421-.05-.647-.05C1.243.001.065 1.177.017 3.07c-.005.176.137.321.313.321zM1.307 8.945V7.827l.107-.093c.28-.247.564-.49.844-.73 1.645-1.408 3.2-2.74 3.2-4.044 0-.824-.332-1.191-1.074-1.191-.26 0-.462.06-.62.155.283.18.415.517.415 1.036 0 1.304-1.554 2.635-3.2 4.045-.28.24-.563.482-.844.729l-.107.093v1.118c0 .173.14.314.314.314H1.62c-.173 0-.313-.14-.313-.314z" transform="translate(16.94 11.427)"/>
                            </g>
                            <g fill="#FFC34C">
                                <path d="M1.32 7.036V6.025c0-.065.02-.127.057-.18L5.327.178c.06-.085.155-.135.258-.135H4.307c-.103 0-.2.05-.258.135L.1 5.845c-.037.053-.057.115-.057.18v1.01c0 .174.14.314.314.314h1.278c-.173 0-.313-.14-.313-.313zM5.577 8.823v-1.16c0-.173-.14-.313-.313-.313H3.985c.173 0 .314.14.314.313v1.16c0 .173.14.314.313.314h1.279c-.173 0-.314-.14-.314-.314z" transform="translate(23.653 11.667)"/>
                            </g>
                            <path fill="#FFA730" d="M32.715 6.463C28.593 2.31 22.535 1.219 17.395 3.2c-.623.24-.91.962-.621 1.565l.012.026c.26.543.895.785 1.457.569 4.302-1.659 9.366-.743 12.823 2.74 4.56 4.593 4.633 11.95.24 16.634l-.583-.588c-.19-.191-.515-.077-.545.19l-.333 3.027c-.022.202.148.374.35.353l3.03-.311c.267-.028.383-.352.194-.543l-.475-.478c5.293-5.58 5.226-14.426-.23-19.921z"/>
                        </g>
                    </g>
                </g>
            </g>
        </g>
    </g>
</svg>
